<mxfile host="app.diagrams.net" modified="2024-06-11T03:37:49.431Z" agent="Mozilla/5.0 (Windows NT 10.0; Win64; x64) AppleWebKit/537.36 (KHTML, like Gecko) Chrome/125.0.0.0 Safari/537.36" version="24.3.1" etag="3wRVxP0KtWAmVU_5pUMZ" type="github">
  <diagram name="PÃ¡gina-1" id="gdseYrf41wiIhMnn_DHh">
    <mxGraphModel>
      <root>
        <mxCell id="0" />
        <mxCell id="1" parent="0" />
      </root>
    </mxGraphModel>
  </diagram>
</mxfile>
